<mxfile host="app.diagrams.net" modified="2021-04-30T21:18:11.422Z" agent="5.0 (Windows NT 10.0; Win64; x64) AppleWebKit/537.36 (KHTML, like Gecko) Chrome/90.0.4430.93 Safari/537.36" etag="3_yjPNMVwJ4SUuzd09uc" version="14.6.9" type="github">
  <diagram id="_Nj0BDTfMtAq43S4P1q0" name="Page-1">
    <mxGraphModel dx="1102" dy="614" grid="1" gridSize="10" guides="1" tooltips="1" connect="1" arrows="1" fold="1" page="1" pageScale="1" pageWidth="827" pageHeight="1169" math="0" shadow="0">
      <root>
        <mxCell id="0" />
        <mxCell id="1" parent="0" />
        <mxCell id="xPAM7A97zWqUdHaIwg-T-13" style="edgeStyle=orthogonalEdgeStyle;rounded=0;orthogonalLoop=1;jettySize=auto;html=1;endArrow=open;endFill=0;dashed=1;entryX=0;entryY=0;entryDx=75;entryDy=0;entryPerimeter=0;exitX=0.25;exitY=1;exitDx=0;exitDy=0;exitPerimeter=0;strokeWidth=1;" edge="1" parent="1" source="xPAM7A97zWqUdHaIwg-T-1" target="xPAM7A97zWqUdHaIwg-T-5">
          <mxGeometry relative="1" as="geometry" />
        </mxCell>
        <mxCell id="xPAM7A97zWqUdHaIwg-T-1" value="" style="shape=folder;fontStyle=1;spacingTop=10;tabWidth=150;tabHeight=30;tabPosition=left;html=1;" vertex="1" parent="1">
          <mxGeometry x="110" y="90" width="300" height="180" as="geometry" />
        </mxCell>
        <mxCell id="xPAM7A97zWqUdHaIwg-T-2" value="User interface layer" style="text;html=1;align=center;verticalAlign=middle;resizable=0;points=[];autosize=1;strokeColor=none;" vertex="1" parent="1">
          <mxGeometry x="120" y="100" width="120" height="20" as="geometry" />
        </mxCell>
        <mxCell id="xPAM7A97zWqUdHaIwg-T-3" value="User interface" style="shape=folder;fontStyle=1;spacingTop=10;tabWidth=40;tabHeight=14;tabPosition=left;html=1;" vertex="1" parent="1">
          <mxGeometry x="145" y="155" width="105" height="50" as="geometry" />
        </mxCell>
        <mxCell id="xPAM7A97zWqUdHaIwg-T-4" value="Admin interface" style="shape=folder;fontStyle=1;spacingTop=10;tabWidth=40;tabHeight=14;tabPosition=left;html=1;" vertex="1" parent="1">
          <mxGeometry x="270" y="155" width="110" height="50" as="geometry" />
        </mxCell>
        <mxCell id="xPAM7A97zWqUdHaIwg-T-5" value="" style="shape=folder;fontStyle=1;spacingTop=10;tabWidth=150;tabHeight=30;tabPosition=left;html=1;" vertex="1" parent="1">
          <mxGeometry x="110" y="340" width="616" height="290" as="geometry" />
        </mxCell>
        <mxCell id="xPAM7A97zWqUdHaIwg-T-6" value="Knowledge search layer" style="text;html=1;align=center;verticalAlign=middle;resizable=0;points=[];autosize=1;strokeColor=none;" vertex="1" parent="1">
          <mxGeometry x="110" y="380" width="140" height="20" as="geometry" />
        </mxCell>
        <mxCell id="xPAM7A97zWqUdHaIwg-T-7" value="Create topic" style="shape=folder;fontStyle=1;spacingTop=10;tabWidth=40;tabHeight=14;tabPosition=left;html=1;" vertex="1" parent="1">
          <mxGeometry x="145" y="435" width="105" height="50" as="geometry" />
        </mxCell>
        <mxCell id="xPAM7A97zWqUdHaIwg-T-8" value="topic customization &lt;br&gt;subsystem" style="shape=folder;fontStyle=1;spacingTop=10;tabWidth=40;tabHeight=14;tabPosition=left;html=1;" vertex="1" parent="1">
          <mxGeometry x="280" y="435" width="140" height="50" as="geometry" />
        </mxCell>
        <mxCell id="xPAM7A97zWqUdHaIwg-T-9" value="Create topic" style="shape=folder;fontStyle=1;spacingTop=10;tabWidth=40;tabHeight=14;tabPosition=left;html=1;" vertex="1" parent="1">
          <mxGeometry x="480" y="435" width="105" height="50" as="geometry" />
        </mxCell>
        <mxCell id="xPAM7A97zWqUdHaIwg-T-10" value="recommendation subsystem &lt;br&gt;of related topics" style="shape=folder;fontStyle=1;spacingTop=10;tabWidth=40;tabHeight=14;tabPosition=left;html=1;" vertex="1" parent="1">
          <mxGeometry x="130" y="512.5" width="170" height="80" as="geometry" />
        </mxCell>
        <mxCell id="xPAM7A97zWqUdHaIwg-T-11" value="Topic valoration" style="shape=folder;fontStyle=1;spacingTop=10;tabWidth=40;tabHeight=14;tabPosition=left;html=1;" vertex="1" parent="1">
          <mxGeometry x="315" y="512.5" width="105" height="50" as="geometry" />
        </mxCell>
        <mxCell id="xPAM7A97zWqUdHaIwg-T-12" value="report creation&amp;nbsp;&lt;br&gt;subsystem" style="shape=folder;fontStyle=1;spacingTop=10;tabWidth=40;tabHeight=14;tabPosition=left;html=1;" vertex="1" parent="1">
          <mxGeometry x="480" y="512.5" width="105" height="50" as="geometry" />
        </mxCell>
        <mxCell id="xPAM7A97zWqUdHaIwg-T-16" style="edgeStyle=orthogonalEdgeStyle;rounded=0;orthogonalLoop=1;jettySize=auto;html=1;entryX=1;entryY=0.528;entryDx=0;entryDy=0;entryPerimeter=0;dashed=1;endArrow=open;endFill=0;" edge="1" parent="1" source="xPAM7A97zWqUdHaIwg-T-14" target="xPAM7A97zWqUdHaIwg-T-5">
          <mxGeometry relative="1" as="geometry" />
        </mxCell>
        <mxCell id="xPAM7A97zWqUdHaIwg-T-14" value="Database" style="shape=folder;fontStyle=1;spacingTop=10;tabWidth=40;tabHeight=14;tabPosition=left;html=1;" vertex="1" parent="1">
          <mxGeometry x="930" y="430" width="105" height="50" as="geometry" />
        </mxCell>
        <mxCell id="xPAM7A97zWqUdHaIwg-T-18" style="edgeStyle=orthogonalEdgeStyle;rounded=0;orthogonalLoop=1;jettySize=auto;html=1;dashed=1;endArrow=none;endFill=0;exitX=0;exitY=0;exitDx=0;exitDy=32;exitPerimeter=0;" edge="1" parent="1">
          <mxGeometry relative="1" as="geometry">
            <mxPoint x="828" y="490" as="targetPoint" />
            <mxPoint x="923" y="532" as="sourcePoint" />
            <Array as="points">
              <mxPoint x="928" y="538" />
              <mxPoint x="828" y="538" />
            </Array>
          </mxGeometry>
        </mxCell>
        <mxCell id="xPAM7A97zWqUdHaIwg-T-15" value="Dataware House" style="shape=folder;fontStyle=1;spacingTop=10;tabWidth=40;tabHeight=14;tabPosition=left;html=1;" vertex="1" parent="1">
          <mxGeometry x="925" y="500" width="110" height="50" as="geometry" />
        </mxCell>
      </root>
    </mxGraphModel>
  </diagram>
</mxfile>
